<svg xmlns="http://www.w3.org/2000/svg" id="Layer_2" viewBox="0 0 95.65 64.23"><defs><style>.cls-1{fill:#ffaf00;stroke-width:0}</style></defs><g id="_레이어_1"><path d="M94.85 32.12C94.85 14.38 80.47 0 62.74 0S30.62 14.38 30.62 32.12c0 4.26.83 8.32 2.34 12.04h28.75l-5.38 20.07h6.4c17.74 0 32.12-14.38 32.12-32.12Z" class="cls-1"/><path d="M19.07 48.17 31.44 2.01H12.97L.6 48.17c-2.42 9.03 2.56 16.06 12.97 16.06h38.14l4.3-16.06z" style="stroke-width:0;fill:#f00028"/><path d="M85.59 60.38h1.7v3.63h.87v-3.63h1.72v-.71h-4.29zM94.3 59.67l-1.07 2.56c-.04.1-.08.23-.12.38-.04-.13-.09-.25-.14-.39l-1.07-2.56h-1.33V64h.79v-3.07c0-.16 0-.32-.01-.47 0-.06 0-.13-.01-.2L92.88 64h.39l1.55-3.74V64h.86v-4.34h-1.35Z" class="cls-1"/></g></svg>