<svg xmlns="http://www.w3.org/2000/svg" width="80" height="80" viewBox="0 0 80 80"><defs><clipPath id="a"><path d="M0 0h64v64H0z" style="fill:none"/></clipPath></defs><path d="M0 0h80v80H0z" style="fill:none"/><path d="M0 0h64v64H0z" style="fill:none" transform="translate(8 6)"/><g style="clip-path:url(#a)" transform="translate(8 6)"><path d="M55.019 45.258a9.15 9.15 0 0 0-.061-13.509 9.25 9.25 0 0 0 2.594-8.649c-.011-.049-.027-.1-.039-.145a5.9 5.9 0 0 0 .185-2.709A20.97 20.97 0 0 0 48.83 6.737 29.2 29.2 0 0 0 32 1.572a29.2 29.2 0 0 0-16.826 5.165A20.98 20.98 0 0 0 6.3 20.251a5.93 5.93 0 0 0 1.342 4.809 6 6 0 0 0 1.029.963 9.3 9.3 0 0 0-1.189 1.5 9.21 9.21 0 0 0 1.58 11.785 9.24 9.24 0 0 0-2.471 9.186 6.12 6.12 0 0 0 0 3.782A14.5 14.5 0 0 0 12 59.6a15.37 15.37 0 0 0 8.95 2.824h22.135a15.37 15.37 0 0 0 8.951-2.824 14.5 14.5 0 0 0 5.415-7.327 6.13 6.13 0 0 0-.9-5.537 6.3 6.3 0 0 0-1.531-1.481" style="fill:#231814"/><path d="M51.332 46.864h-9.323l8.055-1.788a6.79 6.79 0 0 0 5.226-7.454 6.68 6.68 0 0 0-6.19-5.665l1.392-.516a6.6 6.6 0 0 0 4.19-8.791 3.16 3.16 0 0 0 .305-1.948 18.25 18.25 0 0 0-7.752-11.725A26.4 26.4 0 0 0 32 4.322a26.4 26.4 0 0 0-15.232 4.655A18.25 18.25 0 0 0 9.017 20.7a3.18 3.18 0 0 0 .722 2.581 3.46 3.46 0 0 0 2.653 1.219h8.294l-6.843 1.519a6.63 6.63 0 0 0-5.037 7.911 6.68 6.68 0 0 0 6.016 5.18l-1.594.616a6.634 6.634 0 0 0-4.008 8.423 6 6 0 0 0 .248.6 3.4 3.4 0 0 0-.261 2.694 11.72 11.72 0 0 0 4.393 5.918 12.63 12.63 0 0 0 7.358 2.317h22.127a12.63 12.63 0 0 0 7.359-2.317 11.73 11.73 0 0 0 4.388-5.923 3.41 3.41 0 0 0-.5-3.078 3.71 3.71 0 0 0-3-1.5" style="fill:#f6e829"/><path d="M12.391 23.273a2.12 2.12 0 0 1-2.185-2.389C11.651 12.2 20.858 5.512 32 5.512S52.351 12.2 53.8 20.884a2.12 2.12 0 0 1-2.185 2.389zM43.085 48.054H12.706a2.35 2.35 0 0 0-2.351 3 11.005 11.005 0 0 0 10.6 7.4h22.13a11 11 0 0 0 10.6-7.4 2.348 2.348 0 0 0-2.351-3z" style="fill:#f6e829"/><path d="M20.975 15.535a1.65 1.65 0 0 1 .363.881l.249 1.432h.267l-.305-1.735a1.6 1.6 0 0 1-.021-.261.51.51 0 0 1 .2-.428.93.93 0 0 1 .581-.157.8.8 0 0 1 .565.2 1.27 1.27 0 0 1 .323.651 5.6 5.6 0 0 1 .1 1.215 4.5 4.5 0 0 1-.135 1.234 1.12 1.12 0 0 1-.428.64 1.44 1.44 0 0 1-.8.192 1 1 0 0 1-.813-.306 1.34 1.34 0 0 1-.254-.882v-1.393h-.262v1.611a1.1 1.1 0 0 1-.206.734.68.68 0 0 1-.537.236.74.74 0 0 1-.529-.192 1.23 1.23 0 0 1-.3-.646 6 6 0 0 1-.1-1.228 4.4 4.4 0 0 1 .134-1.22 1.15 1.15 0 0 1 .414-.648 1.3 1.3 0 0 1 .759-.2.96.96 0 0 1 .722.268M31.8 19.421h-1.607v-4.176h1.9l.363 1.519h.049l-.022-1.519H34.1v4.176h-1.759l-.515-1.952h-.049zM42.449 17.5a2.2 2.2 0 0 0 .314.673c-.005.379-.021.417-.038.8a.633.633 0 0 1-.71.565.654.654 0 0 1-.716-.586 36 36 0 0 1 0-3.233.654.654 0 0 1 .716-.586 1.02 1.02 0 0 1 .911.564l.95 1.486a2.5 2.5 0 0 0-.315-.667c.005-.32.016-.461.033-.8a.65.65 0 0 1 .71-.586.64.64 0 0 1 .716.564c.049 1.09.049 2.186 0 3.276a.64.64 0 0 1-.716.565 1.03 1.03 0 0 1-.906-.586zM24.64 7.886h1.508l1.644 3.1a26 26 0 0 0-.076-3.1h1.508a28 28 0 0 0 0 4.264h-1.508l-1.644-3.092a26 26 0 0 0 .076 3.092H24.64a28 28 0 0 0 0-4.264M40.191 7.94v.77h-.342v3.39h-.933l-1.85-2.669v1.9h.4v.77h-1.67v-.77h.341V8.71h-.341v-.77h1.274l1.85 2.669V8.71h-.4v-.77z" style="fill:#231814"/><path d="M53.239 37.929a4.555 4.555 0 0 0-5.5-3.8l-17.311 3.854 18.627-8.205.754-.291.034-.012a4.5 4.5 0 0 0 .907-.383 4.557 4.557 0 0 0-3.211-8.429l-33.246 7.38a4.555 4.555 0 0 0-3.462 5.437 4.55 4.55 0 0 0 5.437 3.462L32.617 33.3l.394-.1-19.2 8.52a4.56 4.56 0 0 0-2.636 5.753 4.775 4.775 0 0 0 4.458 3.019 4.3 4.3 0 0 0 .929-.1l33.048-7.336a4.743 4.743 0 0 0 3.624-5.127" style="fill:#352f2e"/><path d="M47.3 35.308a3.66 3.66 0 0 1-3.515 3.8 3.66 3.66 0 0 1 3.795 3.515 3.66 3.66 0 0 1 3.515-3.795 3.657 3.657 0 0 1-3.8-3.515" style="fill:#f6e829"/></g></svg>